<?xml version="1.0" encoding="UTF-8" standalone="no"?>
<!-- Created with Inkscape (http://www.inkscape.org/) -->

<svg
   xmlns:dc="http://purl.org/dc/elements/1.1/"
   xmlns:cc="http://creativecommons.org/ns#"
   xmlns:rdf="http://www.w3.org/1999/02/22-rdf-syntax-ns#"
   xmlns:svg="http://www.w3.org/2000/svg"
   xmlns="http://www.w3.org/2000/svg"
   xmlns:xlink="http://www.w3.org/1999/xlink"
   xmlns:sodipodi="http://sodipodi.sourceforge.net/DTD/sodipodi-0.dtd"
   xmlns:inkscape="http://www.inkscape.org/namespaces/inkscape"
   width="849.22034"
   height="749"
   id="svg2"
   version="1.1"
   inkscape:version="0.48.3.1 r9886"
   sodipodi:docname="connection.svg">
  <defs
     id="defs4" />
  <sodipodi:namedview
     id="base"
     pagecolor="#ffffff"
     bordercolor="#666666"
     borderopacity="1.0"
     inkscape:pageopacity="0.0"
     inkscape:pageshadow="2"
     inkscape:zoom="0.74817337"
     inkscape:cx="371.43766"
     inkscape:cy="443.36028"
     inkscape:document-units="px"
     inkscape:current-layer="g4214"
     showgrid="false"
     fit-margin-top="0"
     fit-margin-left="0"
     fit-margin-right="0"
     fit-margin-bottom="0"
     inkscape:window-width="1280"
     inkscape:window-height="975"
     inkscape:window-x="0"
     inkscape:window-y="0"
     inkscape:window-maximized="1" />
  <metadata
     id="metadata7">
    <rdf:RDF>
      <cc:Work
         rdf:about="">
        <dc:format>image/svg+xml</dc:format>
        <dc:type
           rdf:resource="http://purl.org/dc/dcmitype/StillImage" />
        <dc:title></dc:title>
      </cc:Work>
    </rdf:RDF>
  </metadata>
  <g
     inkscape:label="Layer 1"
     inkscape:groupmode="layer"
     id="layer1"
     transform="translate(154.27118,-487.8949)">
    <image
       y="487.8949"
       x="-154.27118"
       id="image3134"
       xlink:href="file:///home/code/Arduino-CNC/fotos/DSC09459.JPG"
       height="749"
       width="800" />
    <g
       id="g4214"
       transform="translate(-58.465662,339.78289)">
      <rect
         style="fill:#ffffff;fill-opacity:1;stroke:none;stroke-width:6.25000000000000000;stroke-linecap:butt;stroke-linejoin:miter;stroke-miterlimit:4;stroke-opacity:1;stroke-dasharray:none;stroke-dashoffset:0"
         id="rect3137"
         width="740.02179"
         height="337.4046"
         x="-30.243547"
         y="68.50177"
         transform="translate(40.508556,93.077887)" />
      <rect
         style="fill:#7a7a7a;fill-opacity:1;stroke:none"
         id="rect4044"
         width="279.34702"
         height="269.99088"
         x="234.33186"
         y="195.40298" />
      <g
         id="g4202"
         transform="translate(7.0710678,1.4142136)">
        <path
           style="fill:none;stroke:#a8a8a8;stroke-width:2;stroke-linecap:butt;stroke-linejoin:miter;stroke-miterlimit:4;stroke-opacity:1;stroke-dasharray:none"
           d="M 375,63 199,40"
           id="path4112"
           inkscape:connector-curvature="0"
           transform="translate(-23.142857,149.29076)" />
        <path
           style="fill:none;stroke:#d1e000;stroke-width:2;stroke-linecap:butt;stroke-linejoin:miter;stroke-miterlimit:4;stroke-opacity:1;stroke-dasharray:none"
           d="M 277.5,131 199,103.5"
           id="path4114"
           inkscape:connector-curvature="0"
           transform="translate(-23.142857,149.29076)"
           sodipodi:nodetypes="cc" />
        <path
           style="fill:none;stroke:#004cfb;stroke-width:2;stroke-linecap:butt;stroke-linejoin:miter;stroke-miterlimit:4;stroke-opacity:1;stroke-dasharray:none"
           d="M 399.5,66.5 578,40"
           id="path4116"
           inkscape:connector-curvature="0"
           transform="translate(-23.142857,149.29076)"
           sodipodi:nodetypes="cc" />
        <path
           style="fill:none;stroke:#fe0007;stroke-width:2;stroke-linecap:butt;stroke-linejoin:miter;stroke-miterlimit:4;stroke-opacity:1;stroke-dasharray:none"
           d="M 496.5,133 579,100"
           id="path4118"
           inkscape:connector-curvature="0"
           transform="translate(-23.142857,149.29076)"
           sodipodi:nodetypes="cc" />
        <path
           style="fill:none;stroke:#ffb10b;stroke-width:2;stroke-linecap:butt;stroke-linejoin:miter;stroke-miterlimit:4;stroke-opacity:1;stroke-dasharray:none"
           d="m 504,157 75,-2"
           id="path4120"
           inkscape:connector-curvature="0"
           transform="translate(-23.142857,149.29076)" />
        <path
           style="fill:none;stroke:#00ec2c;stroke-width:2;stroke-linecap:butt;stroke-linejoin:miter;stroke-miterlimit:4;stroke-opacity:1;stroke-dasharray:none"
           d="m 455,263 125,2"
           id="path4122"
           inkscape:connector-curvature="0"
           transform="translate(-23.142857,149.29076)" />
        <path
           style="fill:none;stroke:#545454;stroke-width:2;stroke-linecap:butt;stroke-linejoin:miter;stroke-miterlimit:4;stroke-opacity:1;stroke-dasharray:none"
           d="M 445.5,279.5 580,314"
           id="path4124"
           inkscape:connector-curvature="0"
           transform="translate(-23.142857,149.29076)"
           sodipodi:nodetypes="cc" />
        <path
           style="fill:none;stroke:#000000;stroke-width:2;stroke-linecap:butt;stroke-linejoin:miter;stroke-miterlimit:4;stroke-opacity:1;stroke-dasharray:none"
           d="M 327,280 199,315"
           id="path4126"
           inkscape:connector-curvature="0"
           transform="translate(-23.142857,149.29076)"
           sodipodi:nodetypes="cc" />
        <path
           style="fill:none;stroke:#a24a4a;stroke-width:2;stroke-linecap:butt;stroke-linejoin:miter;stroke-miterlimit:4;stroke-opacity:1;stroke-dasharray:none"
           d="m 314,262 -117,1"
           id="path4128"
           inkscape:connector-curvature="0"
           transform="translate(-23.142857,149.29076)" />
        <path
           style="fill:none;stroke:#c93eca;stroke-width:2;stroke-linecap:butt;stroke-linejoin:miter;stroke-miterlimit:4;stroke-opacity:1;stroke-dasharray:none"
           d="m 274,151 -77,10"
           id="path4130"
           inkscape:connector-curvature="0"
           transform="translate(-23.142857,149.29076)"
           sodipodi:nodetypes="cc" />
      </g>
      <g
         id="g4132"
         transform="translate(7.0710678,1.4142136)">
        <text
           xml:space="preserve"
           style="font-size:40px;font-style:normal;font-weight:normal;line-height:125%;letter-spacing:0px;word-spacing:0px;fill:#000000;fill-opacity:1;stroke:none;font-family:Sans"
           x="26.40353"
           y="196.29076"
           id="text3069"
           sodipodi:linespacing="125%"><tspan
             sodipodi:role="line"
             id="tspan3071"
             x="26.40353"
             y="196.29076"
             style="font-size:25px">B white/2</tspan></text>
        <path
           sodipodi:type="arc"
           style="fill:#ffffff;fill-opacity:1;stroke:#000000;stroke-width:7.16666651;stroke-linecap:butt;stroke-linejoin:miter;stroke-miterlimit:4;stroke-opacity:1;stroke-dasharray:none;stroke-dashoffset:0"
           id="path3268"
           sodipodi:cx="200"
           sodipodi:cy="54"
           sodipodi:rx="19"
           sodipodi:ry="19"
           d="m 219,54 c 0,10.49341 -8.50659,19 -19,19 -10.49341,0 -19,-8.50659 -19,-19 0,-10.49341 8.50659,-19 19,-19 10.49341,0 19,8.506589 19,18.999998"
           transform="matrix(0.27906977,0,0,0.27906977,119.34551,174.41867)"
           sodipodi:start="0"
           sodipodi:end="6.2831852"
           sodipodi:open="true" />
      </g>
      <g
         id="g4137"
         transform="translate(7.0710678,1.4142136)">
        <text
           xml:space="preserve"
           style="font-size:40px;font-style:normal;font-weight:normal;line-height:125%;letter-spacing:0px;word-spacing:0px;fill:#000000;fill-opacity:1;stroke:none;font-family:Sans"
           x="587.45331"
           y="197.40331"
           id="text3069-11"
           sodipodi:linespacing="125%"><tspan
             sodipodi:role="line"
             id="tspan3071-3"
             x="587.45331"
             y="197.40331"
             style="font-size:25px">C blue/3</tspan></text>
        <path
           sodipodi:type="arc"
           style="fill:#ffffff;fill-opacity:1;stroke:#000000;stroke-width:7.16666651;stroke-linecap:butt;stroke-linejoin:miter;stroke-miterlimit:4;stroke-opacity:1;stroke-dasharray:none;stroke-dashoffset:0"
           id="path3268-59"
           sodipodi:cx="200"
           sodipodi:cy="54"
           sodipodi:rx="19"
           sodipodi:ry="19"
           d="m 219,54 c 0,10.49341 -8.50659,19 -19,19 -10.49341,0 -19,-8.50659 -19,-19 0,-10.49341 8.50659,-19 19,-19 10.49341,0 19,8.506589 19,18.999998"
           transform="matrix(0.27906977,0,0,0.27906977,500.34551,174.91867)"
           sodipodi:start="0"
           sodipodi:end="6.2831852"
           sodipodi:open="true" />
      </g>
      <g
         transform="translate(7.0710678,-29.898542)"
         id="g4145">
        <text
           xml:space="preserve"
           style="font-size:40px;font-style:normal;font-weight:normal;line-height:125%;letter-spacing:0px;word-spacing:0px;fill:#000000;fill-opacity:1;stroke:none;font-family:Sans"
           x="586.4035"
           y="287.40332"
           id="text3069-5"
           sodipodi:linespacing="125%"><tspan
             sodipodi:role="line"
             id="tspan3071-2"
             x="586.4035"
             y="287.40332"
             style="font-size:25px">D red/4</tspan></text>
        <path
           sodipodi:type="arc"
           style="fill:#ffffff;fill-opacity:1;stroke:#000000;stroke-width:7.16666651;stroke-linecap:butt;stroke-linejoin:miter;stroke-miterlimit:4;stroke-opacity:1;stroke-dasharray:none;stroke-dashoffset:0"
           id="path3268-1"
           sodipodi:cx="200"
           sodipodi:cy="54"
           sodipodi:rx="19"
           sodipodi:ry="19"
           d="m 219,54 c 0,10.49341 -8.50659,19 -19,19 -10.49341,0 -19,-8.50659 -19,-19 0,-10.49341 8.50659,-19 19,-19 10.49341,0 19,8.506589 19,18.999998"
           transform="matrix(0.27906977,0,0,0.27906977,500.34551,265.22099)"
           sodipodi:start="0"
           sodipodi:end="6.2831852"
           sodipodi:open="true" />
      </g>
      <g
         id="g4150"
         transform="translate(7.0710678,1.4142136)">
        <text
           xml:space="preserve"
           style="font-size:40px;font-style:normal;font-weight:normal;line-height:125%;letter-spacing:0px;word-spacing:0px;fill:#000000;fill-opacity:1;stroke:none;font-family:Sans"
           x="586.4035"
           y="314.40332"
           id="text3069-3"
           sodipodi:linespacing="125%"><tspan
             sodipodi:role="line"
             id="tspan3071-29"
             x="586.4035"
             y="314.40332"
             style="font-size:25px">E orange/5</tspan></text>
        <path
           sodipodi:type="arc"
           style="fill:#ffffff;fill-opacity:1;stroke:#000000;stroke-width:7.16666651;stroke-linecap:butt;stroke-linejoin:miter;stroke-miterlimit:4;stroke-opacity:1;stroke-dasharray:none;stroke-dashoffset:0"
           id="path3268-7"
           sodipodi:cx="200"
           sodipodi:cy="54"
           sodipodi:rx="19"
           sodipodi:ry="19"
           d="m 219,54 c 0,10.49341 -8.50659,19 -19,19 -10.49341,0 -19,-8.50659 -19,-19 0,-10.49341 8.50659,-19 19,-19 10.49341,0 19,8.506589 19,18.999998"
           transform="matrix(0.27906977,0,0,0.27906977,500.34551,289.22099)"
           sodipodi:start="0"
           sodipodi:end="6.2831852"
           sodipodi:open="true" />
      </g>
      <g
         transform="translate(7.0710678,2.1014579)"
         id="g4155">
        <text
           xml:space="preserve"
           style="font-size:40px;font-style:normal;font-weight:normal;line-height:125%;letter-spacing:0px;word-spacing:0px;fill:#000000;fill-opacity:1;stroke:none;font-family:Sans"
           x="586.4035"
           y="422.40332"
           id="text3069-9"
           sodipodi:linespacing="125%"><tspan
             sodipodi:role="line"
             id="tspan3071-1"
             x="586.4035"
             y="422.40332"
             style="font-size:25px">F green/6</tspan></text>
        <path
           sodipodi:type="arc"
           style="fill:#ffffff;fill-opacity:1;stroke:#000000;stroke-width:7.16666651;stroke-linecap:butt;stroke-linejoin:miter;stroke-miterlimit:4;stroke-opacity:1;stroke-dasharray:none;stroke-dashoffset:0"
           id="path3268-44"
           sodipodi:cx="200"
           sodipodi:cy="54"
           sodipodi:rx="19"
           sodipodi:ry="19"
           d="m 219,54 c 0,10.49341 -8.50659,19 -19,19 -10.49341,0 -19,-8.50659 -19,-19 0,-10.49341 8.50659,-19 19,-19 10.49341,0 19,8.506589 19,18.999998"
           transform="matrix(0.27906977,0,0,0.27906977,501.34551,399.22099)"
           sodipodi:start="0"
           sodipodi:end="6.2831852"
           sodipodi:open="true" />
      </g>
      <g
         id="g4160"
         transform="translate(7.0710678,1.4142136)">
        <text
           xml:space="preserve"
           style="font-size:40px;font-style:normal;font-weight:normal;line-height:125%;letter-spacing:0px;word-spacing:0px;fill:#000000;fill-opacity:1;stroke:none;font-family:Sans"
           x="587.45331"
           y="472.40332"
           id="text3069-42"
           sodipodi:linespacing="125%"><tspan
             sodipodi:role="line"
             id="tspan3071-0"
             x="587.45331"
             y="472.40332"
             style="font-size:25px">G grey/7</tspan></text>
        <path
           sodipodi:type="arc"
           style="fill:#ffffff;fill-opacity:1;stroke:#000000;stroke-width:7.16666651;stroke-linecap:butt;stroke-linejoin:miter;stroke-miterlimit:4;stroke-opacity:1;stroke-dasharray:none;stroke-dashoffset:0"
           id="path3268-6"
           sodipodi:cx="200"
           sodipodi:cy="54"
           sodipodi:rx="19"
           sodipodi:ry="19"
           d="m 219,54 c 0,10.49341 -8.50659,19 -19,19 -10.49341,0 -19,-8.50659 -19,-19 0,-10.49341 8.50659,-19 19,-19 10.49341,0 19,8.506589 19,18.999998"
           transform="matrix(0.27906977,0,0,0.27906977,502.34551,448.22099)"
           sodipodi:start="0"
           sodipodi:end="6.2831852"
           sodipodi:open="true" />
      </g>
      <g
         id="g4180"
         transform="translate(7.0710678,1.4142136)">
        <text
           xml:space="preserve"
           style="font-size:40px;font-style:normal;font-weight:normal;line-height:125%;letter-spacing:0px;word-spacing:0px;fill:#000000;fill-opacity:1;stroke:none;font-family:Sans"
           x="26.40353"
           y="472.40332"
           id="text3069-6"
           sodipodi:linespacing="125%"><tspan
             sodipodi:role="line"
             id="tspan3071-4"
             x="26.40353"
             y="472.40332"
             style="font-size:25px">H black/8</tspan></text>
        <path
           sodipodi:type="arc"
           style="fill:#ffffff;fill-opacity:1;stroke:#000000;stroke-width:7.16666651;stroke-linecap:butt;stroke-linejoin:miter;stroke-miterlimit:4;stroke-opacity:1;stroke-dasharray:none;stroke-dashoffset:0"
           id="path3268-4"
           sodipodi:cx="200"
           sodipodi:cy="54"
           sodipodi:rx="19"
           sodipodi:ry="19"
           d="m 219,54 c 0,10.49341 -8.50659,19 -19,19 -10.49341,0 -19,-8.50659 -19,-19 0,-10.49341 8.50659,-19 19,-19 10.49341,0 19,8.506589 19,18.999998"
           transform="matrix(0.27906977,0,0,0.27906977,119.34551,449.22099)"
           sodipodi:start="0"
           sodipodi:end="6.2831852"
           sodipodi:open="true" />
      </g>
      <g
         transform="translate(7.0710678,2.1014579)"
         id="g4175">
        <text
           xml:space="preserve"
           style="font-size:40px;font-style:normal;font-weight:normal;line-height:125%;letter-spacing:0px;word-spacing:0px;fill:#000000;fill-opacity:1;stroke:none;font-family:Sans"
           x="30.151089"
           y="417.40332"
           id="text3069-1"
           sodipodi:linespacing="125%"><tspan
             sodipodi:role="line"
             id="tspan3071-5"
             x="30.151089"
             y="417.40332"
             style="font-size:25px">J brown/9</tspan></text>
        <path
           sodipodi:type="arc"
           style="fill:#ffffff;fill-opacity:1;stroke:#000000;stroke-width:7.16666651;stroke-linecap:butt;stroke-linejoin:miter;stroke-miterlimit:4;stroke-opacity:1;stroke-dasharray:none;stroke-dashoffset:0"
           id="path3268-5"
           sodipodi:cx="200"
           sodipodi:cy="54"
           sodipodi:rx="19"
           sodipodi:ry="19"
           d="m 219,54 c 0,10.49341 -8.50659,19 -19,19 -10.49341,0 -19,-8.50659 -19,-19 0,-10.49341 8.50659,-19 19,-19 10.49341,0 19,8.506589 19,18.999998"
           transform="matrix(0.27906977,0,0,0.27906977,119.34551,397.22099)"
           sodipodi:start="0"
           sodipodi:end="6.2831852"
           sodipodi:open="true" />
      </g>
      <g
         transform="translate(7.0710678,-29.898542)"
         id="g4165">
        <text
           xml:space="preserve"
           style="font-size:40px;font-style:normal;font-weight:normal;line-height:125%;letter-spacing:0px;word-spacing:0px;fill:#000000;fill-opacity:1;stroke:none;font-family:Sans"
           x="28.661831"
           y="287.40332"
           id="text3069-4"
           sodipodi:linespacing="125%"><tspan
             sodipodi:role="line"
             id="tspan3071-6"
             x="28.661831"
             y="287.40332"
             style="font-size:25px">A yellow/1</tspan></text>
        <path
           sodipodi:type="arc"
           style="fill:#ffffff;fill-opacity:1;stroke:#000000;stroke-width:7.16666651;stroke-linecap:butt;stroke-linejoin:miter;stroke-miterlimit:4;stroke-opacity:1;stroke-dasharray:none;stroke-dashoffset:0"
           id="path3268-3"
           sodipodi:cx="200"
           sodipodi:cy="54"
           sodipodi:rx="19"
           sodipodi:ry="19"
           d="m 219,54 c 0,10.49341 -8.50659,19 -19,19 -10.49341,0 -19,-8.50659 -19,-19 0,-10.49341 8.50659,-19 19,-19 10.49341,0 19,8.506589 19,18.999998"
           transform="matrix(0.27906977,0,0,0.27906977,119.34551,269.22099)"
           sodipodi:start="0"
           sodipodi:end="6.2831852"
           sodipodi:open="true" />
      </g>
      <g
         id="g4185"
         transform="translate(7.0710678,1.4142136)">
        <path
           inkscape:connector-curvature="0"
           style="fill:none;stroke:#000000;stroke-width:2;stroke-linecap:butt;stroke-linejoin:miter;stroke-miterlimit:4;stroke-opacity:1;stroke-dasharray:none"
           d="m 352.81224,211.68148 -8.19153,5.73576 c 0,0 -5.73577,-8.19153 -13.92728,-2.45575 -12.28729,8.60364 -4.91152,27.85456 3.28,22.1188 8.19152,-5.73576 -7.37576,-19.25092 -19.66306,-10.64727 -12.28727,8.60364 -4.9115,27.85457 3.28001,22.11881 8.19153,-5.73578 -7.37576,-19.25093 -19.66305,-10.64729 -12.28727,8.60366 -4.91149,27.85457 3.28002,22.11881 8.19152,-5.73576 -7.37578,-19.25092 -19.66305,-10.64727 -12.28727,8.60364 -4.91151,27.85456 3.28001,22.1188 8.19153,-5.73577 -7.37578,-19.25092 -19.66305,-10.64727 -8.11666,5.68333 -2.45576,13.92728 -2.45576,13.92728 l -8.19153,5.73577"
           id="path1882"
           sodipodi:nodetypes="ccssssssssscc" />
        <path
           inkscape:connector-curvature="0"
           style="fill:none;stroke:#000000;stroke-width:2;stroke-linecap:butt;stroke-linejoin:miter;stroke-miterlimit:4;stroke-opacity:1;stroke-dasharray:none"
           d="m 473.57678,283.66442 -8.19149,-5.73576 c 0,0 5.73573,-8.19145 -2.45578,-13.92728 -12.28728,-8.60361 -27.85457,4.91151 -19.66307,10.64729 8.19152,5.73578 15.56728,-13.51517 3.28004,-22.11879 -12.28728,-8.60367 -27.85457,4.9115 -19.66305,10.64728 8.19151,5.73573 15.56726,-13.51519 3.27998,-22.11881 -12.28728,-8.6037 -27.85453,4.91147 -19.66305,10.64725 8.19155,5.73578 15.56731,-13.51512 3.28004,-22.11878 -12.2873,-8.60365 -27.8546,4.91154 -19.66308,10.64725 8.19156,5.73575 15.5673,-13.51517 3.28001,-22.11882 -8.11665,-5.68335 -13.92726,2.4558 -13.92726,2.4558 l -8.19152,-5.73575"
           id="path1882-6"
           sodipodi:nodetypes="ccssssssssscc" />
        <path
           inkscape:connector-curvature="0"
           style="fill:none;stroke:#000000;stroke-width:2;stroke-linecap:butt;stroke-linejoin:miter;stroke-miterlimit:4;stroke-opacity:1;stroke-dasharray:none"
           d="m 432.02999,413.69831 4.22616,-9.06305 c 0,0 9.06304,4.22618 13.28926,-4.8369 6.33926,-13.59462 -9.67379,-26.57853 -13.89997,-17.51545 -4.2262,9.06307 16.01308,12.9839 22.35234,-0.61071 6.33928,-13.59462 -9.67379,-26.57852 -13.89998,-17.51544 -4.22618,9.06307 16.01307,12.98389 22.35234,-0.61073 6.33929,-13.59461 -9.67376,-26.5785 -13.89997,-17.51544 -4.22618,9.06309 16.01305,12.98392 22.35233,-0.6107 6.33928,-13.59462 -9.67379,-26.57853 -13.89996,-17.51545 -4.22616,9.06309 16.01306,12.9839 22.35236,-0.61071 4.18756,-8.98026 -4.83693,-13.28926 -4.83693,-13.28926 l 4.22617,-9.06306"
           id="path1882-7"
           sodipodi:nodetypes="ccssssssssscc" />
        <path
           inkscape:connector-curvature="0"
           style="fill:none;stroke:#000000;stroke-width:2;stroke-linecap:butt;stroke-linejoin:miter;stroke-miterlimit:4;stroke-opacity:1;stroke-dasharray:none"
           d="m 303.85714,429.29076 10,0 c 0,0 0,10 10,10 15,0 20,-20 10,-20 -10,0 -5,20 10,20 15,0 20,-20 10,-20 -10,0 -5,20 10,20 15,0 20,-20 10,-20 -10,0 -5,20 10,20 15,0 20,-20 10,-20 -10,0 -5,20 10,20 9.90861,0 10,-10 10,-10 l 10,0"
           id="path1882-5"
           sodipodi:nodetypes="ccssssssssscc" />
        <path
           inkscape:connector-curvature="0"
           style="fill:none;stroke:#000000;stroke-width:2;stroke-linecap:butt;stroke-linejoin:miter;stroke-miterlimit:4;stroke-opacity:1;stroke-dasharray:none"
           d="m 250.81404,299.11776 3.42016,9.39691 c 0,0 -9.39684,3.42017 -5.97668,12.81714 5.13034,14.09534 25.63426,11.95348 22.2141,2.55653 -3.42021,-9.39692 -20.50396,2.14194 -15.37369,16.23726 5.13027,14.09545 25.63425,11.95348 22.21409,2.55653 -3.42024,-9.39684 -20.50397,2.14202 -15.37367,16.23737 5.13029,14.09547 25.63417,11.95346 22.21407,2.55657 -3.42024,-9.39699 -20.50398,2.14189 -15.37366,16.23726 5.13029,14.0954 25.63428,11.95345 22.21403,2.5566 -3.42027,-9.39697 -20.50393,2.14194 -15.37366,16.23734 3.38895,9.31103 12.81713,5.97665 12.81713,5.97665 l 3.42018,9.39692"
           id="path1882-70"
           sodipodi:nodetypes="ccssssssssscc" />
        <text
           xml:space="preserve"
           style="font-size:40px;font-style:normal;font-weight:normal;line-height:125%;letter-spacing:0px;word-spacing:0px;fill:#000000;fill-opacity:1;stroke:none;font-family:Sans"
           x="313.85715"
           y="287.29077"
           id="text3212"
           sodipodi:linespacing="125%"><tspan
             sodipodi:role="line"
             id="tspan3214"
             x="313.85715"
             y="287.29077"
             style="font-size:20px">W1</tspan></text>
        <text
           xml:space="preserve"
           style="font-size:40px;font-style:normal;font-weight:normal;line-height:125%;letter-spacing:0px;word-spacing:0px;fill:#000000;fill-opacity:1;stroke:none;font-family:Sans"
           x="384.20285"
           y="286.58081"
           id="text3212-7"
           sodipodi:linespacing="125%"><tspan
             sodipodi:role="line"
             id="tspan3214-1"
             x="384.20285"
             y="286.58081"
             style="font-size:20px">W2</tspan></text>
        <text
           xml:space="preserve"
           style="font-size:40px;font-style:normal;font-weight:normal;line-height:125%;letter-spacing:0px;word-spacing:0px;fill:#000000;fill-opacity:1;stroke:none;font-family:Sans"
           x="397.20285"
           y="353.58081"
           id="text3212-3"
           sodipodi:linespacing="125%"><tspan
             sodipodi:role="line"
             id="tspan3214-18"
             x="397.20285"
             y="353.58081"
             style="font-size:20px">W3</tspan></text>
        <text
           xml:space="preserve"
           style="font-size:40px;font-style:normal;font-weight:normal;line-height:125%;letter-spacing:0px;word-spacing:0px;fill:#000000;fill-opacity:1;stroke:none;font-family:Sans"
           x="349.20285"
           y="402.58081"
           id="text3212-78"
           sodipodi:linespacing="125%"><tspan
             sodipodi:role="line"
             id="tspan3214-6"
             x="349.20285"
             y="402.58081"
             style="font-size:20px">W4</tspan></text>
        <text
           xml:space="preserve"
           style="font-size:40px;font-style:normal;font-weight:normal;line-height:125%;letter-spacing:0px;word-spacing:0px;fill:#000000;fill-opacity:1;stroke:none;font-family:Sans"
           x="296.20285"
           y="355.58081"
           id="text3212-6"
           sodipodi:linespacing="125%"><tspan
             sodipodi:role="line"
             id="tspan3214-9"
             x="296.20285"
             y="355.58081"
             style="font-size:20px">W5</tspan></text>
      </g>
      <g
         id="g4170"
         transform="translate(7.0710678,1.4142136)">
        <text
           xml:space="preserve"
           style="font-size:40px;font-style:normal;font-weight:normal;line-height:125%;letter-spacing:0px;word-spacing:0px;fill:#000000;fill-opacity:1;stroke:none;font-family:Sans"
           x="26.40353"
           y="317.40332"
           id="text3069-44"
           sodipodi:linespacing="125%"><tspan
             sodipodi:role="line"
             id="tspan3071-66"
             x="26.40353"
             y="317.40332"
             style="font-size:25px">K violet/0</tspan></text>
        <path
           sodipodi:type="arc"
           style="fill:#ffffff;fill-opacity:1;stroke:#000000;stroke-width:7.16666651;stroke-linecap:butt;stroke-linejoin:miter;stroke-miterlimit:4;stroke-opacity:1;stroke-dasharray:none;stroke-dashoffset:0"
           id="path3268-2"
           sodipodi:cx="200"
           sodipodi:cy="54"
           sodipodi:rx="19"
           sodipodi:ry="19"
           d="m 219,54 c 0,10.49341 -8.50659,19 -19,19 -10.49341,0 -19,-8.50659 -19,-19 0,-10.49341 8.50659,-19 19,-19 10.49341,0 19,8.506589 19,18.999998"
           transform="matrix(0.27906977,0,0,0.27906977,119.34551,295.22099)"
           sodipodi:start="0"
           sodipodi:end="6.2831852"
           sodipodi:open="true" />
      </g>
    </g>
    <g
       id="g4018"
       transform="translate(3.7804397,6.6157761)">
      <rect
         y="993.29272"
         x="74.663757"
         height="62.377316"
         width="17.011995"
         id="rect3139-3"
         style="fill:#ffff44;fill-opacity:1;stroke:#ffffff;stroke-width:1;stroke-linecap:butt;stroke-linejoin:miter;stroke-miterlimit:4;stroke-opacity:1;stroke-dasharray:none;stroke-dashoffset:0" />
      <rect
         y="993.29272"
         x="99.709198"
         height="62.377316"
         width="17.011995"
         id="rect3139-9-1"
         style="fill:#d53636;fill-opacity:1;stroke:#ffffff;stroke-width:1;stroke-linecap:butt;stroke-linejoin:miter;stroke-miterlimit:4;stroke-opacity:1;stroke-dasharray:none;stroke-dashoffset:0" />
      <rect
         y="993.29272"
         x="124.75464"
         height="62.377316"
         width="17.011995"
         id="rect3139-7-1"
         style="fill:#eb6a30;fill-opacity:1;stroke:#ffffff;stroke-width:1;stroke-linecap:butt;stroke-linejoin:miter;stroke-miterlimit:4;stroke-opacity:1;stroke-dasharray:none;stroke-dashoffset:0" />
      <rect
         y="993.29272"
         x="149.80008"
         height="62.377316"
         width="17.011995"
         id="rect3139-2-6"
         style="fill:#000000;fill-opacity:1;stroke:#ffffff;stroke-width:1;stroke-linecap:butt;stroke-linejoin:miter;stroke-miterlimit:4;stroke-opacity:1;stroke-dasharray:none;stroke-dashoffset:0" />
      <rect
         y="993.29272"
         x="174.84552"
         height="62.377316"
         width="17.011995"
         id="rect3139-77-0"
         style="fill:#831010;fill-opacity:1;stroke:#ffffff;stroke-width:1;stroke-linecap:butt;stroke-linejoin:miter;stroke-miterlimit:4;stroke-opacity:1;stroke-dasharray:none;stroke-dashoffset:0" />
      <rect
         y="1070.3193"
         x="74.66375"
         height="62.377316"
         width="17.011995"
         id="rect3139-3-1"
         style="fill:#bcbcbc;fill-opacity:1;stroke:#ffffff;stroke-width:1;stroke-linecap:butt;stroke-linejoin:miter;stroke-miterlimit:4;stroke-opacity:1;stroke-dasharray:none;stroke-dashoffset:0" />
      <rect
         y="1070.3193"
         x="99.70919"
         height="62.377316"
         width="17.011995"
         id="rect3139-9-1-2"
         style="fill:#0300ff;fill-opacity:1;stroke:#ffffff;stroke-width:1;stroke-linecap:butt;stroke-linejoin:miter;stroke-miterlimit:4;stroke-opacity:1;stroke-dasharray:none;stroke-dashoffset:0" />
      <rect
         y="1070.3193"
         x="124.75463"
         height="62.377316"
         width="17.011995"
         id="rect3139-7-1-4"
         style="fill:#46c044;fill-opacity:1;stroke:#ffffff;stroke-width:1;stroke-linecap:butt;stroke-linejoin:miter;stroke-miterlimit:4;stroke-opacity:1;stroke-dasharray:none;stroke-dashoffset:0" />
      <rect
         y="1070.3193"
         x="149.80008"
         height="62.377316"
         width="17.011995"
         id="rect3139-2-6-3"
         style="fill:#745b5b;fill-opacity:1;stroke:#ffffff;stroke-width:1;stroke-linecap:butt;stroke-linejoin:miter;stroke-miterlimit:4;stroke-opacity:1;stroke-dasharray:none;stroke-dashoffset:0" />
      <rect
         y="1070.3193"
         x="174.84552"
         height="62.377316"
         width="17.011995"
         id="rect3139-77-0-0"
         style="fill:#c05cb5;fill-opacity:1;stroke:#ffffff;stroke-width:1;stroke-linecap:butt;stroke-linejoin:miter;stroke-miterlimit:4;stroke-opacity:1;stroke-dasharray:none;stroke-dashoffset:0" />
      <text
         xml:space="preserve"
         style="font-size:40px;font-style:normal;font-weight:normal;line-height:125%;letter-spacing:0px;word-spacing:0px;fill:#000000;fill-opacity:1;stroke:none;font-family:Sans"
         x="70.961739"
         y="1033.7374"
         id="text4048"
         sodipodi:linespacing="125%"><tspan
           sodipodi:role="line"
           id="tspan4050"
           x="70.961739"
           y="1033.7374"
           style="font-size:26px;fill:#b97e7e;fill-opacity:1">A D E H J</tspan></text>
      <text
         xml:space="preserve"
         style="font-size:40px;font-style:normal;font-weight:normal;line-height:125%;letter-spacing:0px;word-spacing:0px;fill:#b97e7e;fill-opacity:1;stroke:none;font-family:Sans"
         x="70.961739"
         y="1112.5962"
         id="text4052"
         sodipodi:linespacing="125%"><tspan
           sodipodi:role="line"
           id="tspan4054"
           x="70.961739"
           y="1112.5962"
           style="font-size:26px">B C F G K</tspan></text>
    </g>
    <rect
       style="fill:none;stroke:#ffffff;stroke-width:1;stroke-linecap:butt;stroke-linejoin:miter;stroke-miterlimit:4;stroke-opacity:1;stroke-dasharray:none;stroke-dashoffset:0"
       id="rect4042"
       width="596.11835"
       height="344.83987"
       x="89.551437"
       y="381.43811"
       transform="translate(-154.27118,487.8949)" />
    <text
       xml:space="preserve"
       style="font-size:40px;font-style:normal;font-weight:normal;line-height:125%;letter-spacing:0px;word-spacing:0px;fill:#000000;fill-opacity:1;stroke:none;font-family:Sans"
       x="265.98114"
       y="632.7168"
       id="text4056"
       sodipodi:linespacing="125%"
       transform="translate(-154.27118,487.8949)"><tspan
         sodipodi:role="line"
         id="tspan4058"></tspan></text>
  </g>
</svg>
